# xmcd
#
# Track frame offsets:
#       150
#       19087
#       43185
#       64430
#       90760
#
# Disc length: 1490 seconds
#
# Revision: 1
# Processed by: cddbd v1.5.1PL2 Copyright (c) Steve Scherf et al.
# Submitted via: WhereIsIt 3.67
#
DISCID=3805d005
DTITLE=UrbanSpecies - Listen
DYEAR=1994
DGENRE=Blues
TTITLE0=listen (edit)
TTITLE1=listen (kenny dope horns mix)
TTITLE2=listen (guru's mix)
TTITLE3=listen (louies tribal mix)
TTITLE4=listen (mtv's most wanted acoustic version)
EXTD=
EXTT0=
EXTT1=
EXTT2=
EXTT3=
EXTT4=
PLAYORDER=
